<svg xmlns="http://www.w3.org/2000/svg" viewBox="0 0 1200 630" width="1200" height="630" role="img" aria-label="CamCon — Cinema Camera Controller">
  <defs>
    <radialGradient id="glow" cx="80%" cy="12%" r="75%">
      <stop offset="0%" stop-color="#E8A33D" stop-opacity="0.16"/>
      <stop offset="55%" stop-color="#0B0B0D" stop-opacity="0"/>
    </radialGradient>
    <linearGradient id="amber" x1="0" y1="0" x2="1" y2="1">
      <stop offset="0%" stop-color="#E8A33D"/>
      <stop offset="100%" stop-color="#B87A1E"/>
    </linearGradient>
    <linearGradient id="badge" x1="0" y1="0" x2="1" y2="1">
      <stop offset="0%" stop-color="#1B1B1F"/>
      <stop offset="100%" stop-color="#0B0B0D"/>
    </linearGradient>
  </defs>

  <rect width="1200" height="630" fill="#0B0B0D"/>
  <rect width="1200" height="630" fill="url(#glow)"/>

  <!-- corner brackets -->
  <g fill="none" stroke="#E8A33D" stroke-width="4" opacity="0.7">
    <path d="M64 108V72a8 8 0 0 1 8-8h36"/>
    <path d="M1136 108V72a8 8 0 0 0-8-8h-36"/>
    <path d="M64 522v36a8 8 0 0 0 8 8h36"/>
    <path d="M1136 522v36a8 8 0 0 1-8 8h-36"/>
  </g>

  <!-- app-icon style badge: dark rounded square + amber aperture -->
  <g transform="translate(905 315)">
    <rect x="-150" y="-150" width="300" height="300" rx="56" fill="url(#badge)" stroke="#26262B" stroke-width="2"/>
    <g opacity="0.95">
      <circle r="112" fill="none" stroke="#26262B" stroke-width="2"/>
      <circle r="84" fill="none" stroke="#26262B" stroke-width="2"/>
      <g fill="none" stroke="url(#amber)" stroke-width="6" stroke-linecap="round">
        <path d="M0 -108 L64 -33"/><path d="M104 54 L20 54"/>
        <path d="M39 104 L0 20"/><path d="M-104 54 L-20 -33"/>
        <path d="M-64 -104 L0 -20"/><path d="M104 -33 L20 20"/>
      </g>
      <circle r="15" fill="#E8A33D"/>
    </g>
  </g>

  <!-- text -->
  <text x="96" y="250" fill="#E8A33D" font-family="monospace" font-size="26" letter-spacing="8">CINEMA CAMERA CONTROLLER</text>
  <text x="94" y="345" fill="#F2F2F0" font-family="Pretendard, sans-serif" font-size="76" font-weight="700">CamCon</text>
  <text x="96" y="420" fill="#F2F2F0" font-family="Pretendard, sans-serif" font-size="38" font-weight="600">셔터를 누르면, 필름룩 사진이</text>
  <text x="96" y="472" fill="#F2F2F0" font-family="Pretendard, sans-serif" font-size="38" font-weight="600">폰에 도착합니다</text>
  <text x="96" y="540" fill="#9A9AA0" font-family="Pretendard, sans-serif" font-size="24">PTP/IP · USB OTG · 필름 시뮬레이션 296종</text>
</svg>
