<svg xmlns="http://www.w3.org/2000/svg" viewBox="0 0 64 64" role="img" aria-label="CamCon">
  <rect width="64" height="64" rx="14" fill="#0B0B0D"/>
  <!-- viewfinder corner brackets (reticle) -->
  <g fill="none" stroke="#E8A33D" stroke-width="2.4" stroke-linecap="round">
    <path d="M14 20v-4a2 2 0 0 1 2-2h4"/>
    <path d="M50 20v-4a2 2 0 0 0-2-2h-4"/>
    <path d="M14 44v4a2 2 0 0 0 2 2h4"/>
    <path d="M50 44v4a2 2 0 0 1-2 2h-4"/>
  </g>
  <!-- aperture blades -->
  <g transform="translate(32 32)">
    <circle r="12" fill="none" stroke="#B87A1E" stroke-width="1.6"/>
    <g fill="none" stroke="#E8A33D" stroke-width="1.8" stroke-linecap="round">
      <path d="M0 -12 L6.9 -3.5"/>
      <path d="M10.4 6 L0.6 6"/>
      <path d="M-10.4 6 L-3.5 -6"/>
      <path d="M0 12 L-6.9 3.5"/>
      <path d="M-10.4 -6 L-0.6 -6"/>
      <path d="M10.4 -6 L3.5 6"/>
    </g>
    <circle r="3" fill="#E8A33D"/>
  </g>
</svg>
